<svg width="64" height="61" viewBox="0 0 64 61" fill="none" xmlns="http://www.w3.org/2000/svg">
<path d="M45.247 12.516L33.446 0.609994C33.25 0.414994 33.017 0.260999 32.761 0.155999C32.504 0.0509994 32.23 -0.00200648 31.953 -6.4774e-06C31.401 0.00199352 30.872 0.220994 30.481 0.609994L0.612 30.374C0.22 30.768 0 31.301 0 31.857C0 32.412 0.22 32.946 0.612 33.34L12.517 45.245C12.714 45.44 12.947 45.594 13.203 45.699C13.459 45.804 13.734 45.857 14.011 45.855C14.562 45.853 15.091 45.634 15.483 45.245L21.436 39.292L39.294 21.434L45.247 15.481C45.639 15.087 45.859 14.554 45.859 13.998C45.859 13.443 45.639 12.91 45.247 12.516ZM37.801 16.975L36.307 15.481C35.913 15.09 35.38 14.87 34.824 14.87C34.269 14.87 33.735 15.09 33.341 15.481C33.144 15.677 32.988 15.91 32.881 16.166C32.774 16.422 32.719 16.697 32.719 16.975C32.719 17.253 32.774 17.527 32.881 17.784C32.988 18.04 33.144 18.273 33.341 18.468L34.835 19.962L31.848 22.928L27.389 18.468C26.986 18.124 26.469 17.944 25.939 17.964C25.41 17.985 24.908 18.204 24.533 18.579C24.158 18.953 23.939 19.455 23.918 19.985C23.898 20.514 24.078 21.032 24.423 21.434L28.882 25.893L25.895 28.88L24.423 27.387C24.027 26.991 23.489 26.768 22.929 26.768C22.369 26.768 21.832 26.991 21.436 27.387C21.04 27.783 20.817 28.32 20.817 28.88C20.817 29.441 21.04 29.978 21.436 30.374L22.929 31.846L19.963 34.833L15.483 30.374C15.089 29.982 14.556 29.762 14 29.762C13.444 29.762 12.911 29.982 12.517 30.374C12.125 30.768 11.906 31.301 11.906 31.857C11.906 32.412 12.125 32.946 12.517 33.34L16.976 37.799L14.011 40.786L5.07098 31.846L31.848 5.06899L40.788 14.009L37.801 16.975Z" fill="#FF3343"/>
<path d="M23.138 61H61C61.558 61 62.093 60.778 62.487 60.384C62.882 59.989 63.104 59.454 63.104 58.897V21.034C63.104 20.477 62.882 19.942 62.487 19.547C62.093 19.153 61.558 18.931 61 18.931H48.379C47.822 18.931 47.286 19.153 46.892 19.547C46.498 19.942 46.276 20.477 46.276 21.034V44.172H23.138C22.58 44.172 22.045 44.394 21.651 44.788C21.256 45.183 21.035 45.718 21.035 46.276V58.897C21.035 59.454 21.256 59.989 21.651 60.384C22.045 60.778 22.58 61 23.138 61ZM25.241 48.379H29.448V50.483C29.448 51.041 29.67 51.576 30.064 51.97C30.459 52.365 30.994 52.586 31.552 52.586C32.11 52.586 32.645 52.365 33.039 51.97C33.434 51.576 33.655 51.041 33.655 50.483V48.379H37.862V50.483C37.862 51.041 38.084 51.576 38.478 51.97C38.873 52.365 39.408 52.586 39.966 52.586C40.523 52.586 41.058 52.365 41.453 51.97C41.847 51.576 42.069 51.041 42.069 50.483V48.379H46.276V50.483C46.276 51.041 46.498 51.576 46.892 51.97C47.286 52.365 47.822 52.586 48.379 52.586C48.937 52.586 49.472 52.365 49.867 51.97C50.261 51.576 50.483 51.041 50.483 50.483V48.379H52.586C53.144 48.379 53.679 48.158 54.074 47.763C54.468 47.369 54.69 46.834 54.69 46.276C54.69 45.718 54.468 45.183 54.074 44.788C53.679 44.394 53.144 44.172 52.586 44.172H50.483V39.966H52.586C53.144 39.966 53.679 39.744 54.074 39.349C54.468 38.955 54.69 38.42 54.69 37.862C54.69 37.304 54.468 36.769 54.074 36.375C53.679 35.98 53.144 35.759 52.586 35.759H50.483V31.552H52.586C53.144 31.552 53.679 31.33 54.074 30.936C54.468 30.541 54.69 30.006 54.69 29.448C54.69 28.89 54.468 28.355 54.074 27.961C53.679 27.566 53.144 27.345 52.586 27.345H50.483V23.138H58.897V56.793H25.241V48.379Z" fill="#FF3343"/>
</svg>
