<svg width="65" height="72" viewBox="0 0 65 72" fill="none" xmlns="http://www.w3.org/2000/svg">
<path d="M48.13 43.351C47.996 43.495 47.877 43.653 47.775 43.822C47.658 43.972 47.568 44.141 47.509 44.322C47.419 44.498 47.359 44.687 47.332 44.882C47.212 45.446 47.274 46.033 47.509 46.56C47.642 46.925 47.853 47.257 48.129 47.532C48.405 47.807 48.738 48.018 49.105 48.15C49.455 48.315 49.84 48.396 50.227 48.386C50.611 48.39 50.993 48.32 51.35 48.179C51.703 48.009 52.031 47.791 52.325 47.532C52.599 47.257 52.815 46.93 52.963 46.572C53.11 46.213 53.184 45.829 53.182 45.441C53.192 45.055 53.111 44.672 52.945 44.322C52.796 43.965 52.586 43.637 52.325 43.351C52.049 43.078 51.722 42.862 51.362 42.715C51.002 42.569 50.616 42.494 50.227 42.497C49.841 42.501 49.46 42.581 49.105 42.732C48.742 42.872 48.411 43.083 48.13 43.351ZM35.957 55.599C35.84 55.75 35.75 55.919 35.691 56.1C35.58 56.272 35.5 56.461 35.455 56.659C35.366 57.037 35.366 57.43 35.455 57.808L35.632 58.338L35.898 58.868L36.252 59.309C36.833 59.861 37.606 60.168 38.409 60.163C38.798 60.166 39.183 60.091 39.543 59.945C39.903 59.798 40.231 59.582 40.507 59.309C40.768 59.023 40.978 58.695 41.127 58.338C41.311 57.892 41.382 57.407 41.334 56.928C41.287 56.448 41.121 55.987 40.853 55.586C40.584 55.184 40.221 54.855 39.795 54.626C39.369 54.398 38.893 54.277 38.409 54.274C37.627 54.285 36.878 54.59 36.311 55.128L35.957 55.599ZM48.13 55.128C47.861 55.408 47.65 55.739 47.509 56.1C47.261 56.633 47.179 57.228 47.273 57.808L47.45 58.338C47.515 58.525 47.604 58.704 47.716 58.868C47.825 59.022 47.943 59.17 48.07 59.309C48.351 59.578 48.683 59.788 49.045 59.928C49.399 60.084 49.782 60.164 50.168 60.164C50.555 60.164 50.937 60.084 51.291 59.928C51.649 59.779 51.979 59.57 52.266 59.309C52.55 59.039 52.778 58.715 52.935 58.356C53.093 57.997 53.176 57.611 53.182 57.219C53.192 56.833 53.111 56.449 52.945 56.1C52.796 55.743 52.586 55.415 52.325 55.128C52.038 54.868 51.708 54.659 51.35 54.51C50.996 54.354 50.614 54.274 50.227 54.274C49.841 54.274 49.458 54.354 49.105 54.51C48.742 54.65 48.411 54.86 48.13 55.128ZM35.691 46.56C35.832 46.921 36.042 47.252 36.311 47.532C36.878 48.07 37.627 48.375 38.409 48.386C38.893 48.383 39.369 48.262 39.795 48.034C40.221 47.805 40.584 47.476 40.853 47.074C41.121 46.673 41.287 46.212 41.334 45.733C41.382 45.253 41.311 44.768 41.127 44.322C40.978 43.965 40.768 43.637 40.507 43.351C40.231 43.078 39.903 42.862 39.543 42.715C39.183 42.569 38.798 42.494 38.409 42.497C37.627 42.508 36.878 42.813 36.311 43.351C35.901 43.765 35.624 44.29 35.513 44.862C35.403 45.433 35.465 46.024 35.691 46.56ZM48.13 31.573C47.869 31.859 47.659 32.188 47.509 32.544C47.283 33.081 47.221 33.672 47.331 34.243C47.442 34.814 47.72 35.34 48.13 35.754C48.411 36.022 48.742 36.232 49.105 36.372C49.458 36.528 49.841 36.609 50.227 36.609C50.614 36.609 50.996 36.528 51.35 36.372C51.708 36.223 52.038 36.014 52.325 35.754C52.599 35.479 52.815 35.153 52.963 34.794C53.11 34.435 53.184 34.051 53.182 33.663C53.192 33.277 53.111 32.894 52.945 32.544C52.796 32.188 52.586 31.859 52.325 31.573C51.91 31.164 51.382 30.888 50.809 30.777C50.236 30.667 49.643 30.729 49.105 30.954C48.742 31.095 48.411 31.305 48.13 31.573ZM11.8182 33.663V57.219C11.8182 58 12.1295 58.749 12.6835 59.301C13.2376 59.853 13.9891 60.163 14.7727 60.163H26.5909C27.375 60.163 28.126 59.853 28.68 59.301C29.234 58.749 29.545 58 29.545 57.219V33.663C29.545 32.882 29.234 32.134 28.68 31.581C28.126 31.029 27.375 30.719 26.5909 30.719H14.7727C13.9891 30.719 13.2376 31.029 12.6835 31.581C12.1295 32.134 11.8182 32.882 11.8182 33.663ZM23.6364 36.608V54.274H17.7273V36.608H23.6364ZM0 27.774V63.108C0 65.451 0.9338 67.697 2.5961 69.354C4.2584 71.011 6.5129 71.941 8.8636 71.941H56.136C58.487 71.941 60.742 71.011 62.404 69.354C64.066 67.697 65 65.451 65 63.108V27.774C65 25.432 64.066 23.185 62.404 21.528C60.742 19.872 58.487 18.941 56.136 18.941H8.8636C6.5129 18.941 4.2584 19.872 2.5961 21.528C0.9338 23.185 0 25.432 0 27.774ZM56.136 24.83C56.92 24.83 57.671 25.14 58.226 25.692C58.78 26.245 59.091 26.994 59.091 27.774V63.108C59.091 63.889 58.78 64.638 58.226 65.19C57.671 65.742 56.92 66.052 56.136 66.052H8.8636C8.08 66.052 7.3285 65.742 6.7745 65.19C6.2204 64.638 5.9091 63.889 5.9091 63.108V27.774C5.9091 26.994 6.2204 26.245 6.7745 25.692C7.3285 25.14 8.08 24.83 8.8636 24.83H56.136ZM35.957 32.044C35.84 32.194 35.75 32.364 35.691 32.544C35.601 32.72 35.541 32.909 35.514 33.104C35.425 33.482 35.425 33.875 35.514 34.252L35.691 34.782L35.957 35.312L36.311 35.754C36.878 36.292 37.627 36.597 38.409 36.608C38.893 36.605 39.369 36.485 39.795 36.256C40.221 36.027 40.584 35.698 40.853 35.297C41.121 34.895 41.287 34.435 41.334 33.955C41.382 33.475 41.311 32.991 41.127 32.544C40.978 32.188 40.768 31.859 40.507 31.573C40.231 31.3 39.903 31.084 39.543 30.938C39.183 30.791 38.798 30.717 38.409 30.719C37.627 30.73 36.878 31.035 36.311 31.573L35.957 32.044Z" fill="#FF3343"/>
<path d="M12.0922 2.004C11.935 2.164 11.8109 2.353 11.727 2.561C11.6431 2.768 11.601 2.99 11.6031 3.214L11.7415 13.419C11.7454 13.643 11.7935 13.864 11.8831 14.069C11.9726 14.275 12.1018 14.46 12.2632 14.615C12.4228 14.773 12.6119 14.897 12.8196 14.981C13.0272 15.065 13.2494 15.107 13.4734 15.105L20.2844 15.012L46.59 14.655C46.814 14.652 47.035 14.603 47.24 14.514C47.445 14.424 47.631 14.295 47.786 14.134L52.819 8.962C53.134 8.639 53.308 8.204 53.302 7.752C53.295 7.301 53.11 6.87 52.787 6.556L47.615 1.52301C47.454 1.34701 47.257 1.208 47.038 1.113C46.819 1.019 46.583 0.971002 46.344 0.974002L20.1119 1.402L13.3481 1.422C13.1217 1.431 12.8986 1.47901 12.688 1.56301C12.5816 1.64901 12.486 1.74701 12.4031 1.85601C12.3421 1.90701 12.2865 1.964 12.2369 2.026L12.0922 2.004ZM45.741 4.449L49.193 7.808L45.834 11.26L21.935 11.584L21.8426 4.77301L45.741 4.449ZM18.4492 4.819L18.5415 11.63L15.1358 11.664L15.0438 4.877L18.4492 4.819Z" fill="#FF3343"/>
</svg>
