<svg width="49" height="61" viewBox="0 0 49 61" fill="none" xmlns="http://www.w3.org/2000/svg">
<path d="M27.562 36.6H15.312C14.5 36.6 13.721 36.921 13.147 37.493C12.573 38.065 12.25 38.841 12.25 39.65C12.25 40.459 12.573 41.235 13.147 41.807C13.721 42.379 14.5 42.7 15.312 42.7H27.562C28.375 42.7 29.154 42.379 29.728 41.807C30.302 41.235 30.625 40.459 30.625 39.65C30.625 38.841 30.302 38.065 29.728 37.493C29.154 36.921 28.375 36.6 27.562 36.6ZM39.812 6.10001H36.199C35.567 4.32001 34.398 2.779 32.852 1.686C31.305 0.594005 29.458 0.005 27.562 0H21.438C19.542 0.005 17.695 0.594005 16.148 1.686C14.602 2.779 13.433 4.32001 12.801 6.10001H9.18799C6.75099 6.10001 4.41401 7.064 2.69101 8.78C0.968009 10.496 0 12.823 0 15.25V51.85C0 54.277 0.968009 56.604 2.69101 58.32C4.41401 60.036 6.75099 61 9.18799 61H39.812C42.249 61 44.586 60.036 46.309 58.32C48.032 56.604 49 54.277 49 51.85V15.25C49 12.823 48.032 10.496 46.309 8.78C44.586 7.064 42.249 6.10001 39.812 6.10001ZM18.375 9.14999C18.375 8.34099 18.698 7.565 19.272 6.993C19.846 6.421 20.625 6.10001 21.438 6.10001H27.562C28.375 6.10001 29.154 6.421 29.728 6.993C30.302 7.565 30.625 8.34099 30.625 9.14999V12.2H18.375V9.14999ZM42.875 51.85C42.875 52.659 42.552 53.435 41.978 54.007C41.404 54.579 40.625 54.9 39.812 54.9H9.18799C8.37499 54.9 7.596 54.579 7.022 54.007C6.448 53.435 6.125 52.659 6.125 51.85V15.25C6.125 14.441 6.448 13.665 7.022 13.093C7.596 12.521 8.37499 12.2 9.18799 12.2H12.25V15.25C12.25 16.059 12.573 16.835 13.147 17.407C13.721 17.979 14.5 18.3 15.312 18.3H33.688C34.5 18.3 35.279 17.979 35.853 17.407C36.427 16.835 36.75 16.059 36.75 15.25V12.2H39.812C40.625 12.2 41.404 12.521 41.978 13.093C42.552 13.665 42.875 14.441 42.875 15.25V51.85ZM33.688 24.4H15.312C14.5 24.4 13.721 24.721 13.147 25.293C12.573 25.865 12.25 26.641 12.25 27.45C12.25 28.259 12.573 29.035 13.147 29.607C13.721 30.179 14.5 30.5 15.312 30.5H33.688C34.5 30.5 35.279 30.179 35.853 29.607C36.427 29.035 36.75 28.259 36.75 27.45C36.75 26.641 36.427 25.865 35.853 25.293C35.279 24.721 34.5 24.4 33.688 24.4Z" fill="white"/>
</svg>
